# xmcd
#
# Track frame offsets:
#	150
#	18947
#	34582
#	54247
#	70677
#	95090
#	114677
#	134727
#	154800
#	182177
#	200017
#	221822
#	245062
#	267847
#	295120
#	313397
#	327987
#
# Disc length: 4620
#
# Revision: 2
# Processed by: cddbd v1.5.1PL0 Copyright (c) Steve Scherf et al.
# Submitted via: FreeRIP 1.21
# Normalized: r1:DSETVAR1,TDELIM( - )
#
DISCID=0c120a11
DTITLE=Various Artist - Love songs - CD2
DYEAR=1900
DGENRE=blues
TTITLE0=Michael Jackson - I just can't stop loving you
TTITLE1=Mariah Carey - Open arms
TTITLE2=3T - Anything
TTITLE3=Color Me Badd - The earth, the sun, the rain
TTITLE4=Meat Loaf - I'd lie for you (And that's the truth)
TTITLE5=Oasis - Wonderwall
TTITLE6=Roxette - You don't understand me
TTITLE7=Bruce Springsteen - Secret garden
TTITLE8=Toto - I will remember
TTITLE9=Chris De Burg - Missing you
TTITLE10=Gloria Estefan - Always tomorrow
TTITLE11=Simon and Garfunkel - The boxer
TTITLE12=Marla Glen - Believer
TTITLE13=Simple Minds - Belfast child
TTITLE14=Mike and The Mechanics - Help me
TTITLE15=Michael Bolton - A love so beautiful
TTITLE16=Bonnie Tyler - Limelight
EXTD=
EXTT0=
EXTT1=
EXTT2=
EXTT3=
EXTT4=
EXTT5=
EXTT6=
EXTT7=
EXTT8=
EXTT9=
EXTT10=
EXTT11=
EXTT12=
EXTT13=
EXTT14=
EXTT15=
EXTT16=
PLAYORDER=
